<svg id="Group_7" data-name="Group 7" xmlns="http://www.w3.org/2000/svg" xmlns:xlink="http://www.w3.org/1999/xlink" width="266.02" height="266.02" viewBox="0 0 266.02 266.02">
  <defs>
    <clipPath id="clip-path">
      <rect width="266.02" height="266.02" fill="none"/>
    </clipPath>
    <clipPath id="clip-path-2">
      <rect width="83.794" height="144.2" fill="none"/>
    </clipPath>
  </defs>
  <g id="Asistent" clip-path="url(#clip-path)">
    <g id="Logo">
      <g id="Path_35" data-name="Path 35">
        <path d="M133.01,0A133.01,133.01,0,1,1,0,133.01,133.01,133.01,0,0,1,133.01,0Z" stroke="none"/>
        <path d="M 133.0099334716797 1 C 124.0525665283203 1 115.1011352539063 1.902374267578125 106.4042663574219 3.6820068359375 C 97.92893981933594 5.416290283203125 89.59233093261719 8.004119873046875 81.62600708007813 11.37356567382813 C 73.80410766601563 14.68196105957031 66.259765625 18.77690124511719 59.20263671875 23.54463195800781 C 52.21223449707031 28.26722717285156 45.63876342773438 33.69082641601563 39.664794921875 39.664794921875 C 33.69082641601563 45.63876342773438 28.26722717285156 52.21223449707031 23.54463195800781 59.20263671875 C 18.77690124511719 66.259765625 14.68196105957031 73.80410766601563 11.37356567382813 81.62600708007813 C 8.004119873046875 89.59233093261719 5.416290283203125 97.92893981933594 3.6820068359375 106.4042663574219 C 1.902374267578125 115.1011352539063 1 124.0525665283203 1 133.0099334716797 C 1 141.9673004150391 1.902374267578125 150.9187316894531 3.6820068359375 159.6156005859375 C 5.416290283203125 168.0909423828125 8.004119873046875 176.4275360107422 11.37356567382813 184.3938293457031 C 14.68196105957031 192.2157592773438 18.77690124511719 199.7600708007813 23.54463195800781 206.8172302246094 C 28.26722717285156 213.8076019287109 33.69082641601563 220.3810729980469 39.664794921875 226.3550415039063 C 45.63876342773438 232.3289947509766 52.21223449707031 237.7526397705078 59.20263671875 242.4752349853516 C 66.259765625 247.2429656982422 73.80410766601563 251.3379058837891 81.62600708007813 254.6462707519531 C 89.59233093261719 258.0157470703125 97.92893981933594 260.6035766601563 106.4042663574219 262.3378601074219 C 115.1011352539063 264.1174926757813 124.0525665283203 265.0198669433594 133.0099334716797 265.0198669433594 C 141.9673004150391 265.0198669433594 150.9187316894531 264.1174926757813 159.6156005859375 262.3378601074219 C 168.0909423828125 260.6035766601563 176.4275360107422 258.0157470703125 184.3938293457031 254.6462707519531 C 192.2157592773438 251.3379058837891 199.7600708007813 247.2429656982422 206.8172302246094 242.4752349853516 C 213.8076019287109 237.7526397705078 220.3810729980469 232.3289947509766 226.3550415039063 226.3550415039063 C 232.3289947509766 220.3810729980469 237.7526397705078 213.8076019287109 242.4752349853516 206.8172302246094 C 247.2429656982422 199.7600708007813 251.3379058837891 192.2157592773438 254.6462707519531 184.3938293457031 C 258.0157470703125 176.4275360107422 260.6035766601563 168.0909423828125 262.3378601074219 159.6156005859375 C 264.1174926757813 150.9187316894531 265.0198669433594 141.9673004150391 265.0198669433594 133.0099334716797 C 265.0198669433594 124.0525665283203 264.1174926757813 115.1011352539063 262.3378601074219 106.4042663574219 C 260.6035766601563 97.92893981933594 258.0157470703125 89.59233093261719 254.6462707519531 81.62600708007813 C 251.3379058837891 73.80410766601563 247.2429656982422 66.259765625 242.4752349853516 59.20263671875 C 237.7526397705078 52.21223449707031 232.3289947509766 45.63876342773438 226.3550415039063 39.664794921875 C 220.3810729980469 33.69082641601563 213.8076019287109 28.26722717285156 206.8172302246094 23.54463195800781 C 199.7600708007813 18.77690124511719 192.2157592773438 14.68196105957031 184.3938293457031 11.37356567382813 C 176.4275360107422 8.004119873046875 168.0909423828125 5.416290283203125 159.6156005859375 3.6820068359375 C 150.9187316894531 1.902374267578125 141.9673004150391 1 133.0099334716797 1 M 133.0099334716797 0 C 206.4692687988281 0 266.0198669433594 59.55056762695313 266.0198669433594 133.0099334716797 C 266.0198669433594 206.4692687988281 206.4692687988281 266.0198669433594 133.0099334716797 266.0198669433594 C 59.55056762695313 266.0198669433594 0 206.4692687988281 0 133.0099334716797 C 0 59.55056762695313 59.55056762695313 0 133.0099334716797 0 Z" stroke="none" fill="rgba(0,0,0,0)"/>
      </g>
      <g id="The_Right_V" data-name="The Right V" transform="translate(89.977 62.593)" clip-path="url(#clip-path-2)">
        <path id="Path_5" data-name="Path 5" d="M329.862,411.577,367.508,552.95l8.468-28.038L347.139,411.577Z" transform="translate(-329.105 -410.879)" fill="#fff" stroke="#fff" stroke-width="1"/>
        <path id="Path_6" data-name="Path 6" d="M373.045,526.091,409.39,411.577H390.982" transform="translate(-326.55 -410.879)" fill="none" stroke="#fff" stroke-width="1.2"/>
      </g>
    </g>
  </g>
</svg>
